<svg xmlns="http://www.w3.org/2000/svg" width="90" height="108" viewBox="0 0 90 108">
  <rect width="90" height="108" rx="10" fill="#ffffff"/>
  <circle cx="45" cy="44" r="33" fill="#f6f8fa"/>
  <circle cx="45" cy="44" r="33" fill="none" stroke="#e1e4e8" stroke-width="5"/>
  <circle cx="45" cy="44" r="33" fill="none" stroke="#9B4FE8" stroke-width="5" stroke-linecap="round" stroke-dasharray="145.14 62.21" transform="rotate(-90 45 44)"/>
  <g transform="translate(33.000,32.000) scale(1.00000)">
    <path d="M11.5 15.97l.41 2.44c-.26.14-.68.27-1.24.39-.57.13-1.24.19-2.01.19-2.21-.04-3.79-.72-4.72-2.1-.93-1.37-1.27-3.22-.91-5.48.33-2.05 1.15-3.73 2.44-5.03 1.29-1.3 2.87-1.93 4.7-1.93.74 0 1.38.07 1.9.21.52.13.9.27 1.14.42l-.71 2.52-.42-.25c-.22-.12-.56-.22-1.02-.3-.46-.09-.89-.11-1.29-.06-1.12.14-1.97.68-2.54 1.61-.58.93-.78 2.1-.59 3.52.19 1.38.62 2.43 1.28 3.16.66.73 1.51 1.05 2.55.97.39-.04.8-.1 1.21-.19.42-.1.74-.21.94-.3zm7.24-2.72l-.58 3.45h-1.8l.58-3.45-2.98-.01.29-1.73 2.98.01.41-2.44 1.8.01-.41 2.43 1.5.01-.29 1.73z" fill="#9B4FE8"/>
  </g>
  <text x="45" y="84" text-anchor="middle" font-family="system-ui, sans-serif" font-size="9" font-weight="600" fill="#444444">C#</text>
  <text x="45" y="98" text-anchor="middle" font-family="system-ui, sans-serif" font-size="8" fill="#9B4FE8">70%</text>
</svg>