<svg xmlns="http://www.w3.org/2000/svg" width="90" height="108" viewBox="0 0 90 108">
  <rect width="90" height="108" rx="10" fill="#ffffff"/>
  <circle cx="45" cy="44" r="33" fill="#f6f8fa"/>
  <circle cx="45" cy="44" r="33" fill="none" stroke="#e1e4e8" stroke-width="5"/>
  <circle cx="45" cy="44" r="33" fill="none" stroke="#1572B6" stroke-width="5" stroke-linecap="round" stroke-dasharray="176.24 31.11" transform="rotate(-90 45 44)"/>
  <g transform="translate(33.000,32.000) scale(1.00000)">
    <path d="M1.5 0h21l-1.91 21.563L11.977 24l-8.565-2.438L1.5 0zm17.09 4.413L5.41 4.41l.213 2.622 10.125.002-.255 2.716h-6.64l.24 2.573h6.182l-.366 3.523-2.91.804-2.956-.81-.188-2.11h-2.61l.29 3.855L12 19.288l5.373-1.53L18.59 4.414z" fill="#1572B6"/>
  </g>
  <text x="45" y="84" text-anchor="middle" font-family="system-ui, sans-serif" font-size="9" font-weight="600" fill="#444444">CSS3</text>
  <text x="45" y="98" text-anchor="middle" font-family="system-ui, sans-serif" font-size="8" fill="#1572B6">85%</text>
</svg>