<svg xmlns="http://www.w3.org/2000/svg" width="80" height="80" viewBox="0 0 80 80">
  <circle cx="40" cy="40" r="30" fill="none" stroke="#e1e4e8" stroke-width="4"/>
  <circle cx="40" cy="40" r="30" fill="none" stroke="#7B68EE" stroke-width="4" stroke-linecap="round" stroke-dasharray="131.95 56.55" transform="rotate(-90 40 40)"/>
  <g transform="translate(29.000,29.000) scale(0.91667)">
    <path d="M24 8.77h-2.468v7.565h-1.425V8.77h-2.462V7.53H24zm-6.852 7.565h-4.821V7.53h4.63v1.24h-3.205v2.494h2.953v1.234h-2.953v2.604h3.396zm-6.708 0H8.882L4.78 9.863a2.896 2.896 0 0 1-.258-.51h-.036c.032.189.048.592.048 1.21v5.772H3.157V7.53h1.659l3.965 6.32c.167.261.275.442.323.54h.024c-.04-.233-.06-.629-.06-1.185V7.529h1.372zm-8.703-.693a.868.829 0 0 1-.869.829.868.829 0 0 1-.868-.83.868.829 0 0 1 .868-.828.868.829 0 0 1 .869.829Z" fill="#7B68EE"/>
  </g>
</svg>