<svg xmlns="http://www.w3.org/2000/svg" width="90" height="108" viewBox="0 0 90 108">
  <rect width="90" height="108" rx="10" fill="#ffffff"/>
  <circle cx="45" cy="44" r="33" fill="#f6f8fa"/>
  <circle cx="45" cy="44" r="33" fill="none" stroke="#e1e4e8" stroke-width="5"/>
  <circle cx="45" cy="44" r="33" fill="none" stroke="#009688" stroke-width="5" stroke-linecap="round" stroke-dasharray="145.14 62.21" transform="rotate(-90 45 44)"/>
  <g transform="translate(33.000,32.000) scale(1.00000)">
    <path d="M12 .0387C5.3729.0384.0003 5.3931 0 11.9988c-.001 6.6066 5.372 11.9628 12 11.9625 6.628.0003 12.001-5.3559 12-11.9625-.0003-6.6057-5.3729-11.9604-12-11.96m-.829 5.4153h7.55l-7.5805 5.3284h5.1828L5.279 18.5436q2.9466-6.5444 5.892-13.0896" fill="#009688"/>
  </g>
  <text x="45" y="84" text-anchor="middle" font-family="system-ui, sans-serif" font-size="9" font-weight="600" fill="#444444">FastAPI</text>
  <text x="45" y="98" text-anchor="middle" font-family="system-ui, sans-serif" font-size="8" fill="#009688">70%</text>
</svg>