<svg xmlns="http://www.w3.org/2000/svg" width="80" height="80" viewBox="0 0 80 80">
  <circle cx="40" cy="40" r="30" fill="none" stroke="#e1e4e8" stroke-width="4"/>
  <circle cx="40" cy="40" r="30" fill="none" stroke="#F05032" stroke-width="4" stroke-linecap="round" stroke-dasharray="160.22 28.28" transform="rotate(-90 40 40)"/>
  <g transform="translate(29.000,29.000) scale(0.91667)">
    <path d="M13.09 23.549a1.54 1.54 0 0 1-2.18 0L.451 13.089a1.54 1.54 0 0 1 0-2.179l7.191-7.19 2.733 2.733a1.85 1.85 0 0 0 .964 2.326v6.66a1.849 1.849 0 1 0 1.54 0V8.957l2.508 2.508a1.85 1.85 0 1 0 1.09-1.09l-2.634-2.634a1.85 1.85 0 0 0-2.378-2.377L8.73 2.63 10.91.451a1.54 1.54 0 0 1 2.179 0l10.459 10.46a1.54 1.54 0 0 1 0 2.179z" fill="#F05032"/>
  </g>
</svg>