<svg xmlns="http://www.w3.org/2000/svg" width="90" height="108" viewBox="0 0 90 108">
  <rect width="90" height="108" rx="10" fill="#ffffff"/>
  <circle cx="45" cy="44" r="33" fill="#f6f8fa"/>
  <circle cx="45" cy="44" r="33" fill="none" stroke="#e1e4e8" stroke-width="5"/>
  <circle cx="45" cy="44" r="33" fill="none" stroke="#FC6D26" stroke-width="5" stroke-linecap="round" stroke-dasharray="165.88 41.47" transform="rotate(-90 45 44)"/>
  <g transform="translate(33.000,32.000) scale(1.00000)">
    <path d="m23.6004 9.5927-.0337-.0862L20.3.9814a.851.851 0 0 0-.3362-.405.8748.8748 0 0 0-.9997.0539.8748.8748 0 0 0-.29.4399l-2.2055 6.748H7.5375l-2.2057-6.748a.8573.8573 0 0 0-.29-.4412.8748.8748 0 0 0-.9997-.0537.8585.8585 0 0 0-.3362.4049L.4332 9.5015l-.0325.0862a6.0657 6.0657 0 0 0 2.0119 7.0105l.0113.0087.03.0213 4.976 3.7264 2.462 1.8633 1.4995 1.1321a1.0085 1.0085 0 0 0 1.2197 0l1.4995-1.1321 2.4619-1.8633 5.006-3.7489.0125-.01a6.0682 6.0682 0 0 0 2.0094-7.003z" fill="#FC6D26"/>
  </g>
  <text x="45" y="84" text-anchor="middle" font-family="system-ui, sans-serif" font-size="9" font-weight="600" fill="#444444">GitLab</text>
  <text x="45" y="98" text-anchor="middle" font-family="system-ui, sans-serif" font-size="8" fill="#FC6D26">80%</text>
</svg>