<svg xmlns="http://www.w3.org/2000/svg" width="90" height="108" viewBox="0 0 90 108">
  <rect width="90" height="108" rx="10" fill="#ffffff"/>
  <circle cx="45" cy="44" r="33" fill="#f6f8fa"/>
  <circle cx="45" cy="44" r="33" fill="none" stroke="#e1e4e8" stroke-width="5"/>
  <circle cx="45" cy="44" r="33" fill="none" stroke="#59666C" stroke-width="5" stroke-linecap="round" stroke-dasharray="103.67 103.68" transform="rotate(-90 45 44)"/>
  <g transform="translate(33.000,32.000) scale(1.00000)">
    <path d="M5.365 0L9.98 7.994h8.95L14.31 0H5.366zm-.431.248L.46 7.994l4.613 8.008L9.55 8.24 4.934.248zm13.992 7.75l-4.475 7.76 4.617 7.992 4.471-7.744-4.613-8.008zm-4.905 8.006l-8.95.002L9.688 24h8.946l-4.615-7.994.001-.002Z" fill="#59666C"/>
  </g>
  <text x="45" y="84" text-anchor="middle" font-family="system-ui, sans-serif" font-size="9" font-weight="600" fill="#444444">Hibernate</text>
  <text x="45" y="98" text-anchor="middle" font-family="system-ui, sans-serif" font-size="8" fill="#59666C">50%</text>
</svg>