<svg xmlns="http://www.w3.org/2000/svg" width="90" height="108" viewBox="0 0 90 108">
  <rect width="90" height="108" rx="10" fill="#ffffff"/>
  <circle cx="45" cy="44" r="33" fill="#f6f8fa"/>
  <circle cx="45" cy="44" r="33" fill="none" stroke="#e1e4e8" stroke-width="5"/>
  <circle cx="45" cy="44" r="33" fill="none" stroke="#E34F26" stroke-width="5" stroke-linecap="round" stroke-dasharray="186.61 20.74" transform="rotate(-90 45 44)"/>
  <g transform="translate(33.000,32.000) scale(1.00000)">
    <path d="M1.5 0h21l-1.91 21.563L11.977 24l-8.564-2.438L1.5 0zm7.031 9.75l-.232-2.718 10.059.003.23-2.622L5.412 4.41l.698 8.01h9.126l-.326 3.426-2.91.804-2.955-.81-.188-2.11H6.248l.33 4.171L12 19.351l5.379-1.443.744-8.157H8.531z" fill="#E34F26"/>
  </g>
  <text x="45" y="84" text-anchor="middle" font-family="system-ui, sans-serif" font-size="9" font-weight="600" fill="#444444">HTML5</text>
  <text x="45" y="98" text-anchor="middle" font-family="system-ui, sans-serif" font-size="8" fill="#E34F26">90%</text>
</svg>