<svg xmlns="http://www.w3.org/2000/svg" width="90" height="108" viewBox="0 0 90 108">
  <rect width="90" height="108" rx="10" fill="#ffffff"/>
  <circle cx="45" cy="44" r="33" fill="#f6f8fa"/>
  <circle cx="45" cy="44" r="33" fill="none" stroke="#e1e4e8" stroke-width="5"/>
  <circle cx="45" cy="44" r="33" fill="none" stroke="#C00000" stroke-width="5" stroke-linecap="round" stroke-dasharray="165.88 41.47" transform="rotate(-90 45 44)"/>
  <g transform="translate(33.000,32.000) scale(1.00000)">
    <path d="M16.412 4.412H7.588C3.396 4.412 0 7.808 0 12s3.396 7.588 7.588 7.588h8.824C20.604 19.588 24 16.192 24 12s-3.396-7.588-7.588-7.588zm-.177 12.529H7.765a4.941 4.941 0 0 1 0-9.882h8.47a4.941 4.941 0 0 1 0 9.882z" fill="#C00000"/>
  </g>
  <text x="45" y="84" text-anchor="middle" font-family="system-ui, sans-serif" font-size="9" font-weight="600" fill="#444444">Oracle</text>
  <text x="45" y="98" text-anchor="middle" font-family="system-ui, sans-serif" font-size="8" fill="#C00000">80%</text>
</svg>