<svg xmlns="http://www.w3.org/2000/svg" width="90" height="108" viewBox="0 0 90 108">
  <rect width="90" height="108" rx="10" fill="#ffffff"/>
  <circle cx="45" cy="44" r="33" fill="#f6f8fa"/>
  <circle cx="45" cy="44" r="33" fill="none" stroke="#e1e4e8" stroke-width="5"/>
  <circle cx="45" cy="44" r="33" fill="none" stroke="#31A8FF" stroke-width="5" stroke-linecap="round" stroke-dasharray="165.88 41.47" transform="rotate(-90 45 44)"/>
  <g transform="translate(33.000,32.000) scale(1.00000)">
    <path d="M0 4v16h24V4H0zm9.301 11.56c-.49.399-1.107.634-1.847.727-.547.074-1.149.074-1.798.055v2.904H3.798V8.73c.929-.13 1.887-.19 2.822-.184.71 0 1.345.055 1.907.19.563.13 1.042.344 1.44.635.399.29.71.657.929 1.096.22.44.33.966.33 1.564 0 .563-.097 1.07-.296 1.51a3.06 3.06 0 0 1-.83 1.02zm8.575 2.17c-.18.413-.44.771-.771 1.075-.33.303-.727.536-1.19.7-.46.165-.972.247-1.533.247-.44 0-.853-.04-1.234-.12-.385-.083-.74-.2-1.07-.364l.426-1.538c.275.138.566.248.88.33.31.08.632.12.966.12.495 0 .88-.11 1.151-.33.275-.22.413-.508.413-.866 0-.33-.11-.6-.33-.814-.22-.214-.598-.413-1.124-.6-.495-.178-.894-.378-1.206-.6a2.895 2.895 0 0 1-.77-.8 2.986 2.986 0 0 1-.413-.99 5.03 5.03 0 0 1-.124-1.124c0-.495.08-.943.248-1.345.165-.4.4-.74.7-1.02.304-.275.66-.49 1.07-.635.413-.145.868-.22 1.37-.22.4 0 .785.04 1.15.117.366.08.7.19.994.33l-.413 1.524a3.707 3.707 0 0 0-.756-.275 3.45 3.45 0 0 0-.853-.104c-.44 0-.785.104-1.02.317-.24.21-.358.48-.358.81 0 .165.027.317.08.454.054.137.152.265.29.385.138.117.32.232.549.34.226.108.509.222.843.344.55.193 1.013.4 1.385.618.37.22.666.462.88.728.21.265.358.558.44.876.08.316.12.668.12 1.055 0 .523-.09.985-.275 1.399z" fill="#31A8FF"/>
  </g>
  <text x="45" y="84" text-anchor="middle" font-family="system-ui, sans-serif" font-size="9" font-weight="600" fill="#444444">Photoshop</text>
  <text x="45" y="98" text-anchor="middle" font-family="system-ui, sans-serif" font-size="8" fill="#31A8FF">80%</text>
</svg>