<svg width="580" height="592" viewBox="0 0 580 592" xmlns="http://www.w3.org/2000/svg">
  <style>
    .bg{fill:#ffffff}
    @media(prefers-color-scheme:dark){.bg{fill:#0d1117}}
    .track{fill:none;stroke:#e1e4e8;stroke-width:4}
    @media(prefers-color-scheme:dark){.track{stroke:#30363d}}
    .circlefill{fill:#f6f8fa}
    @media(prefers-color-scheme:dark){.circlefill{fill:#161b22}}
    .grouptitle{font-family:-apple-system,BlinkMacSystemFont,"Segoe UI",sans-serif;font-size:10px;font-weight:600;fill:#8b949e;letter-spacing:1px}
    .skillname{font-family:-apple-system,BlinkMacSystemFont,"Segoe UI",sans-serif;font-size:10px;fill:#57606a;font-weight:500}
    @media(prefers-color-scheme:dark){.skillname{fill:#8b949e}}
    .divider{stroke:#e1e4e8;stroke-width:0.5}
    @media(prefers-color-scheme:dark){.divider{stroke:#30363d}}
  </style>
  <rect width="580" height="592" rx="14" class="bg"/>
  <text x="290.0" y="42" text-anchor="middle" class="grouptitle">LANGUAGES</text>
  <circle cx="85.0" cy="78.0" r="22" class="circlefill"/>
  <circle cx="85.0" cy="78.0" r="22" class="track"/>
  <circle cx="85.0" cy="78.0" r="22" fill="none" stroke="#ED8B00" stroke-width="4" stroke-linecap="round" stroke-dasharray="0 138.23" transform="rotate(-90 85.0 78.0)">
    <animate attributeName="stroke-dasharray" from="0 138.23" to="82.94 55.29" dur="1.4s" begin="0.0s" fill="freeze" calcMode="spline" keyTimes="0;1" keySplines="0.4 0 0.2 1"/>
  </circle>
  <g transform="translate(74.00,67.00) scale(0.9167)">
    <path d="M8.851 18.56s-.917.534.653.714c1.902.218 2.874.187 4.969-.211 0 0 .552.346 1.321.646-4.699 2.013-10.633-.118-6.943-1.149M8.276 15.933s-1.028.761.542.924c2.032.209 3.636.227 6.413-.308 0 0 .384.389.987.602-5.679 1.661-12.007.13-7.942-1.218M13.116 11.475c1.158 1.333-.304 2.533-.304 2.533s2.939-1.518 1.589-3.418c-1.261-1.772-2.228-2.652 3.007-5.688 0-.001-8.216 2.051-4.292 6.573M19.33 20.504s.679.559-.747.991c-2.712.822-11.288 1.069-13.669.033-.856-.373.749-.89 1.254-.998.527-.114.828-.093.828-.093-1.000-.497-6.379 1.359-2.736 1.947 9.894 1.604 18.035-.722 15.070-1.88M9.292 13.21s-4.362 1.036-1.544 1.412c1.189.159 3.561.123 5.77-.062 1.806-.152 3.618-.477 3.618-.477s-.637.272-1.098.587c-4.429 1.165-12.981.623-10.522-.568 2.082-1.006 3.776-.892 3.776-.892M17.116 17.584c4.503-2.34 2.421-4.589.968-4.285-.355.074-.515.138-.515.138s.132-.207.385-.297c2.875-1.011 5.086 2.981-.928 4.562 0-.001.07-.062.09-.118M14.401 0s2.494 2.494-2.366 6.33c-3.896 3.077-.888 4.832-.001 6.836-2.274-2.053-3.943-3.858-2.824-5.54 1.644-2.469 6.197-3.665 5.191-7.626M9.734 23.924c4.322.277 10.959-.153 11.116-2.198 0 0-.302.775-3.572 1.391-3.688.694-8.239.613-10.937.168 0-.001.553.457 3.393.639" fill="#ED8B00"/>
  </g>
  <text x="85.0" y="115.0" text-anchor="middle" class="skillname">Java</text>
  <circle cx="167.0" cy="78.0" r="22" class="circlefill"/>
  <circle cx="167.0" cy="78.0" r="22" class="track"/>
  <circle cx="167.0" cy="78.0" r="22" fill="none" stroke="#9B4FE8" stroke-width="4" stroke-linecap="round" stroke-dasharray="0 138.23" transform="rotate(-90 167.0 78.0)">
    <animate attributeName="stroke-dasharray" from="0 138.23" to="96.76 41.47" dur="1.4s" begin="0.1s" fill="freeze" calcMode="spline" keyTimes="0;1" keySplines="0.4 0 0.2 1"/>
  </circle>
  <g transform="translate(156.00,67.00) scale(0.9167)">
    <path d="M11.5 15.97l.41 2.44c-.26.14-.68.27-1.24.39-.57.13-1.24.19-2.01.19-2.21-.04-3.79-.72-4.72-2.1-.93-1.37-1.27-3.22-.91-5.48.33-2.05 1.15-3.73 2.44-5.03 1.29-1.3 2.87-1.93 4.7-1.93.74 0 1.38.07 1.9.21.52.13.9.27 1.14.42l-.71 2.52-.42-.25c-.22-.12-.56-.22-1.02-.3-.46-.09-.89-.11-1.29-.06-1.12.14-1.97.68-2.54 1.61-.58.93-.78 2.1-.59 3.52.19 1.38.62 2.43 1.28 3.16.66.73 1.51 1.05 2.55.97.39-.04.8-.1 1.21-.19.42-.1.74-.21.94-.3zm7.24-2.72l-.58 3.45h-1.8l.58-3.45-2.98-.01.29-1.73 2.98.01.41-2.44 1.8.01-.41 2.43 1.5.01-.29 1.73z" fill="#9B4FE8"/>
  </g>
  <text x="167.0" y="115.0" text-anchor="middle" class="skillname">C#</text>
  <circle cx="249.0" cy="78.0" r="22" class="circlefill"/>
  <circle cx="249.0" cy="78.0" r="22" class="track"/>
  <circle cx="249.0" cy="78.0" r="22" fill="none" stroke="#c8a800" stroke-width="4" stroke-linecap="round" stroke-dasharray="0 138.23" transform="rotate(-90 249.0 78.0)">
    <animate attributeName="stroke-dasharray" from="0 138.23" to="103.67 34.56" dur="1.4s" begin="0.2s" fill="freeze" calcMode="spline" keyTimes="0;1" keySplines="0.4 0 0.2 1"/>
  </circle>
  <g transform="translate(238.00,67.00) scale(0.9167)">
    <path d="M0 0h24v24H0V0zm22.034 18.276c-.175-1.095-.888-2.015-3.003-2.873-.736-.345-1.554-.585-1.797-1.14-.091-.33-.105-.51-.046-.705.15-.646.915-.84 1.515-.66.39.12.75.42.976.9 1.034-.676 1.034-.676 1.755-1.125-.27-.42-.404-.601-.586-.78-.63-.705-1.469-1.065-2.834-1.034l-.705.089c-.676.165-1.32.525-1.71 1.005-1.14 1.291-.811 3.541.569 4.471 1.365 1.02 3.361 1.244 3.616 2.205.24 1.17-.87 1.545-1.966 1.41-.811-.18-1.26-.586-1.755-1.336l-1.83 1.051c.21.48.45.689.81 1.109 1.74 1.756 6.09 1.666 6.871-1.004.029-.09.24-.705.074-1.65l.046.067zm-8.983-7.245h-2.248c0 1.938-.009 3.864-.009 5.805 0 1.232.063 2.363-.138 2.711-.33.689-1.18.601-1.566.48-.396-.196-.597-.466-.83-.855-.063-.105-.11-.196-.127-.196l-1.825 1.125c.305.63.75 1.172 1.324 1.517.855.51 2.004.675 3.207.405.783-.226 1.458-.691 1.811-1.411.51-.93.402-2.07.397-3.346.012-2.054 0-4.109 0-6.179l.004-.056z" fill="#c8a800"/>
  </g>
  <text x="249.0" y="115.0" text-anchor="middle" class="skillname">JavaScript</text>
  <circle cx="331.0" cy="78.0" r="22" class="circlefill"/>
  <circle cx="331.0" cy="78.0" r="22" class="track"/>
  <circle cx="331.0" cy="78.0" r="22" fill="none" stroke="#3178C6" stroke-width="4" stroke-linecap="round" stroke-dasharray="0 138.23" transform="rotate(-90 331.0 78.0)">
    <animate attributeName="stroke-dasharray" from="0 138.23" to="69.12 69.12" dur="1.4s" begin="0.3s" fill="freeze" calcMode="spline" keyTimes="0;1" keySplines="0.4 0 0.2 1"/>
  </circle>
  <g transform="translate(320.00,67.00) scale(0.9167)">
    <path d="M1.125 0C.502 0 0 .502 0 1.125v21.75C0 23.498.502 24 1.125 24h21.75c.623 0 1.125-.502 1.125-1.125V1.125C24 .502 23.498 0 22.875 0zm17.363 9.75c.612 0 1.154.037 1.627.111a6.38 6.38 0 0 1 1.306.34v2.458a3.95 3.95 0 0 0-.643-.361 5.093 5.093 0 0 0-.717-.26 5.453 5.453 0 0 0-1.426-.2c-.3 0-.573.028-.819.086a2.1 2.1 0 0 0-.623.242c-.17.104-.3.229-.393.374a.888.888 0 0 0-.14.49c0 .196.053.373.156.529.104.156.252.304.443.444s.423.276.696.41c.273.135.582.274.926.416.47.197.892.407 1.266.628.374.222.695.473.963.753.268.279.472.598.614.957.142.359.214.776.214 1.253 0 .657-.125 1.21-.373 1.656a3.033 3.033 0 0 1-1.012 1.085 4.38 4.38 0 0 1-1.487.596c-.566.12-1.163.18-1.79.18a9.916 9.916 0 0 1-1.84-.164 5.544 5.544 0 0 1-1.512-.493v-2.63a5.033 5.033 0 0 0 3.237 1.2c.333 0 .624-.03.872-.09.249-.06.456-.144.623-.25.166-.108.29-.234.373-.38a1.023 1.023 0 0 0-.074-1.089 2.12 2.12 0 0 0-.537-.5 5.597 5.597 0 0 0-.807-.444 27.72 27.72 0 0 0-1.007-.436c-.918-.383-1.602-.852-2.053-1.405-.45-.553-.676-1.222-.676-2.005 0-.614.123-1.141.369-1.582.246-.441.58-.804 1.004-1.089a4.494 4.494 0 0 1 1.47-.629 7.536 7.536 0 0 1 1.77-.201zm-15.113.188h9.563v2.166H9.506v9.646H6.789v-9.646H3.375z" fill="#3178C6"/>
  </g>
  <text x="331.0" y="115.0" text-anchor="middle" class="skillname">TypeScript</text>
  <circle cx="413.0" cy="78.0" r="22" class="circlefill"/>
  <circle cx="413.0" cy="78.0" r="22" class="track"/>
  <circle cx="413.0" cy="78.0" r="22" fill="none" stroke="#E34F26" stroke-width="4" stroke-linecap="round" stroke-dasharray="0 138.23" transform="rotate(-90 413.0 78.0)">
    <animate attributeName="stroke-dasharray" from="0 138.23" to="124.41 13.82" dur="1.4s" begin="0.4s" fill="freeze" calcMode="spline" keyTimes="0;1" keySplines="0.4 0 0.2 1"/>
  </circle>
  <g transform="translate(402.00,67.00) scale(0.9167)">
    <path d="M1.5 0h21l-1.91 21.563L11.977 24l-8.564-2.438L1.5 0zm7.031 9.75l-.232-2.718 10.059.003.23-2.622L5.412 4.41l.698 8.01h9.126l-.326 3.426-2.91.804-2.955-.81-.188-2.11H6.248l.33 4.171L12 19.351l5.379-1.443.744-8.157H8.531z" fill="#E34F26"/>
  </g>
  <text x="413.0" y="115.0" text-anchor="middle" class="skillname">HTML5</text>
  <circle cx="495.0" cy="78.0" r="22" class="circlefill"/>
  <circle cx="495.0" cy="78.0" r="22" class="track"/>
  <circle cx="495.0" cy="78.0" r="22" fill="none" stroke="#1572B6" stroke-width="4" stroke-linecap="round" stroke-dasharray="0 138.23" transform="rotate(-90 495.0 78.0)">
    <animate attributeName="stroke-dasharray" from="0 138.23" to="117.50 20.73" dur="1.4s" begin="0.5s" fill="freeze" calcMode="spline" keyTimes="0;1" keySplines="0.4 0 0.2 1"/>
  </circle>
  <g transform="translate(484.00,67.00) scale(0.9167)">
    <path d="M1.5 0h21l-1.91 21.563L11.977 24l-8.565-2.438L1.5 0zm17.09 4.413L5.41 4.41l.213 2.622 10.125.002-.255 2.716h-6.64l.24 2.573h6.182l-.366 3.523-2.91.804-2.956-.81-.188-2.11h-2.61l.29 3.855L12 19.288l5.373-1.53L18.59 4.414z" fill="#1572B6"/>
  </g>
  <text x="495.0" y="115.0" text-anchor="middle" class="skillname">CSS3</text>
  <line x1="85.0" y1="155" x2="495.0" y2="155" class="divider"/>
  <text x="290.0" y="178" text-anchor="middle" class="grouptitle">FRAMEWORKS & LIBRARIES</text>
  <circle cx="126.0" cy="214.0" r="22" class="circlefill"/>
  <circle cx="126.0" cy="214.0" r="22" class="track"/>
  <circle cx="126.0" cy="214.0" r="22" fill="none" stroke="#6DB33F" stroke-width="4" stroke-linecap="round" stroke-dasharray="0 138.23" transform="rotate(-90 126.0 214.0)">
    <animate attributeName="stroke-dasharray" from="0 138.23" to="69.12 69.12" dur="1.4s" begin="0.25s" fill="freeze" calcMode="spline" keyTimes="0;1" keySplines="0.4 0 0.2 1"/>
  </circle>
  <g transform="translate(115.00,203.00) scale(0.9167)">
    <path d="M21.8537 1.4158a10.4504 10.4504 0 0 1-1.284 2.2471A11.9666 11.9666 0 1 0 3.8518 20.7757l.4445.3951a11.9543 11.9543 0 0 0 19.6316-8.2971c.3457-3.0126-.568-6.8649-2.0743-11.458zM5.5805 20.8745a1.0174 1.0174 0 1 1-.1482-1.4323 1.0396 1.0396 0 0 1 .1482 1.4323zm16.1991-3.5806c-2.9385 3.9263-9.2601 2.5928-13.2852 2.7904 0 0-.7161.0494-1.4323.1481 0 0 .2717-.1234.6174-.2469 2.8398-.9877 4.1732-1.1853 5.9018-2.0743 3.2349-1.6545 6.4698-5.2844 7.1118-9.0379-1.2347 3.6053-4.9881 6.7167-8.3959 7.9761-2.3459.8643-6.5685 1.7039-6.5685 1.7039l-.1729-.0988c-2.8645-1.4076-2.9632-7.6304 2.2718-9.6306 2.2966-.889 4.4696-.395 6.9637-.9877 2.6422-.6174 5.7043-2.5929 6.939-5.1857 1.3828 4.1732 3.062 10.643.0493 14.6434z" fill="#6DB33F"/>
  </g>
  <text x="126.0" y="251.0" text-anchor="middle" class="skillname">Spring</text>
  <circle cx="208.0" cy="214.0" r="22" class="circlefill"/>
  <circle cx="208.0" cy="214.0" r="22" class="track"/>
  <circle cx="208.0" cy="214.0" r="22" fill="none" stroke="#7B68EE" stroke-width="4" stroke-linecap="round" stroke-dasharray="0 138.23" transform="rotate(-90 208.0 214.0)">
    <animate attributeName="stroke-dasharray" from="0 138.23" to="96.76 41.47" dur="1.4s" begin="0.35s" fill="freeze" calcMode="spline" keyTimes="0;1" keySplines="0.4 0 0.2 1"/>
  </circle>
  <g transform="translate(197.00,203.00) scale(0.9167)">
    <path d="M24 8.77h-2.468v7.565h-1.425V8.77h-2.462V7.53H24zm-6.852 7.565h-4.821V7.53h4.63v1.24h-3.205v2.494h2.953v1.234h-2.953v2.604h3.396zm-6.708 0H8.882L4.78 9.863a2.896 2.896 0 0 1-.258-.51h-.036c.032.189.048.592.048 1.21v5.772H3.157V7.53h1.659l3.965 6.32c.167.261.275.442.323.54h.024c-.04-.233-.06-.629-.06-1.185V7.529h1.372zm-8.703-.693a.868.829 0 0 1-.869.829.868.829 0 0 1-.868-.83.868.829 0 0 1 .868-.828.868.829 0 0 1 .869.829Z" fill="#7B68EE"/>
  </g>
  <text x="208.0" y="251.0" text-anchor="middle" class="skillname">.NET</text>
  <circle cx="290.0" cy="214.0" r="22" class="circlefill"/>
  <circle cx="290.0" cy="214.0" r="22" class="track"/>
  <circle cx="290.0" cy="214.0" r="22" fill="none" stroke="#7952B3" stroke-width="4" stroke-linecap="round" stroke-dasharray="0 138.23" transform="rotate(-90 290.0 214.0)">
    <animate attributeName="stroke-dasharray" from="0 138.23" to="124.41 13.82" dur="1.4s" begin="0.45s" fill="freeze" calcMode="spline" keyTimes="0;1" keySplines="0.4 0 0.2 1"/>
  </circle>
  <g transform="translate(279.00,203.00) scale(0.9167)">
    <path d="M11.77 11.24H9.956V8.202h2.152c1.17 0 1.834.522 1.834 1.466 0 1.008-.773 1.572-2.174 1.572zm.324 1.206H9.957v3.348h2.231c1.459 0 2.232-.585 2.232-1.685s-.795-1.663-2.326-1.663zM24 11.39v1.218c-1.128.108-1.817.944-2.226 2.268-.407 1.319-.463 2.937-.42 4.186.045 1.3-.968 2.5-2.337 2.5H4.985c-1.37 0-2.383-1.2-2.337-2.5.043-1.249-.013-2.867-.42-4.186-.41-1.324-1.1-2.16-2.228-2.268V11.39c1.128-.108 1.819-.944 2.227-2.268.408-1.319.464-2.937.42-4.186-.045-1.3.968-2.5 2.338-2.5h14.032c1.37 0 2.382 1.2 2.337 2.5-.043 1.249.013 2.867.42 4.186.409 1.324 1.098 2.16 2.226 2.268zm-7.927 2.817c0-1.354-.953-2.333-2.368-2.488v-.057c1.04-.169 1.856-1.135 1.856-2.213 0-1.537-1.213-2.538-3.062-2.538h-4.16v10.172h4.181c2.218 0 3.553-1.086 3.553-2.876z" fill="#7952B3"/>
  </g>
  <text x="290.0" y="251.0" text-anchor="middle" class="skillname">Bootstrap</text>
  <circle cx="372.0" cy="214.0" r="22" class="circlefill"/>
  <circle cx="372.0" cy="214.0" r="22" class="track"/>
  <circle cx="372.0" cy="214.0" r="22" fill="none" stroke="#009688" stroke-width="4" stroke-linecap="round" stroke-dasharray="0 138.23" transform="rotate(-90 372.0 214.0)">
    <animate attributeName="stroke-dasharray" from="0 138.23" to="96.76 41.47" dur="1.4s" begin="0.55s" fill="freeze" calcMode="spline" keyTimes="0;1" keySplines="0.4 0 0.2 1"/>
  </circle>
  <g transform="translate(361.00,203.00) scale(0.9167)">
    <path d="M12 .0387C5.3729.0384.0003 5.3931 0 11.9988c-.001 6.6066 5.372 11.9628 12 11.9625 6.628.0003 12.001-5.3559 12-11.9625-.0003-6.6057-5.3729-11.9604-12-11.96m-.829 5.4153h7.55l-7.5805 5.3284h5.1828L5.279 18.5436q2.9466-6.5444 5.892-13.0896" fill="#009688"/>
  </g>
  <text x="372.0" y="251.0" text-anchor="middle" class="skillname">FastAPI</text>
  <circle cx="454.0" cy="214.0" r="22" class="circlefill"/>
  <circle cx="454.0" cy="214.0" r="22" class="track"/>
  <circle cx="454.0" cy="214.0" r="22" fill="none" stroke="#59666C" stroke-width="4" stroke-linecap="round" stroke-dasharray="0 138.23" transform="rotate(-90 454.0 214.0)">
    <animate attributeName="stroke-dasharray" from="0 138.23" to="69.12 69.12" dur="1.4s" begin="0.65s" fill="freeze" calcMode="spline" keyTimes="0;1" keySplines="0.4 0 0.2 1"/>
  </circle>
  <g transform="translate(443.00,203.00) scale(0.9167)">
    <path d="M5.365 0L9.98 7.994h8.95L14.31 0H5.366zm-.431.248L.46 7.994l4.613 8.008L9.55 8.24 4.934.248zm13.992 7.75l-4.475 7.76 4.617 7.992 4.471-7.744-4.613-8.008zm-4.905 8.006l-8.95.002L9.688 24h8.946l-4.615-7.994.001-.002Z" fill="#59666C"/>
  </g>
  <text x="454.0" y="251.0" text-anchor="middle" class="skillname">Hibernate</text>
  <line x1="85.0" y1="291" x2="495.0" y2="291" class="divider"/>
  <text x="290.0" y="314" text-anchor="middle" class="grouptitle">DATABASES & DEVOPS</text>
  <circle cx="126.0" cy="350.0" r="22" class="circlefill"/>
  <circle cx="126.0" cy="350.0" r="22" class="track"/>
  <circle cx="126.0" cy="350.0" r="22" fill="none" stroke="#4479A1" stroke-width="4" stroke-linecap="round" stroke-dasharray="0 138.23" transform="rotate(-90 126.0 350.0)">
    <animate attributeName="stroke-dasharray" from="0 138.23" to="117.50 20.73" dur="1.4s" begin="0.5s" fill="freeze" calcMode="spline" keyTimes="0;1" keySplines="0.4 0 0.2 1"/>
  </circle>
  <g transform="translate(115.00,339.00) scale(0.9167)">
    <path d="M16.405 5.501c-.115 0-.193.014-.274.033v.013h.014c.054.104.146.18.214.273.054.107.1.214.154.32l.014-.015c.094-.066.14-.172.14-.333-.04-.047-.046-.094-.08-.14-.04-.067-.126-.1-.18-.153zM5.77 18.695h-.927a50.854 50.854 0 00-.27-4.41h-.008l-1.41 4.41H2.45l-1.4-4.41h-.01a72.892 72.892 0 00-.195 4.41H0c.055-1.966.192-3.81.41-5.53h1.15l1.335 4.064h.008l1.347-4.064h1.095c.242 2.015.384 3.86.428 5.53zm4.017-4.08c-.378 2.045-.876 3.533-1.492 4.46-.482.716-1.01 1.073-1.583 1.073-.153 0-.34-.046-.566-.138v-.494c.11.017.24.026.386.026.268 0 .483-.075.647-.222.197-.18.295-.382.295-.605 0-.155-.077-.47-.23-.944L6.23 14.615h.91l.727 2.36c.164.536.233.91.205 1.123.4-1.064.678-2.227.835-3.483zm12.325 4.08h-2.63v-5.53h.885v4.85h1.745zm-3.32.135l-1.016-.5c.09-.076.177-.158.255-.25.433-.506.648-1.258.648-2.253 0-1.83-.718-2.746-2.155-2.746-.704 0-1.254.232-1.65.697-.43.508-.646 1.256-.646 2.245 0 .972.19 1.686.574 2.14.35.41.877.615 1.583.615.264 0 .506-.033.725-.098l1.325.772.36-.622zM15.5 17.588c-.225-.36-.337-.94-.337-1.736 0-1.393.424-2.09 1.27-2.09.443 0 .77.167.977.5.224.362.336.936.336 1.723 0 1.404-.424 2.108-1.27 2.108-.445 0-.77-.167-.978-.5zm-1.658-.425c0 .47-.172.856-.516 1.156-.344.3-.803.45-1.384.45-.543 0-1.064-.172-1.573-.515l.237-.476c.438.22.833.328 1.19.328.332 0 .593-.073.783-.22a.754.754 0 00.3-.615c0-.33-.23-.61-.648-.845-.388-.213-1.163-.657-1.163-.657-.422-.307-.632-.636-.632-1.177 0-.45.157-.81.47-1.085.315-.278.72-.415 1.22-.415.512 0 .98.136 1.4.41l-.213.476a2.726 2.726 0 00-1.064-.23c-.283 0-.502.068-.654.206a.685.685 0 00-.248.524c0 .328.234.61.666.85.393.215 1.187.67 1.187.67.433.305.648.63.648 1.168zm9.382-5.852c-.535-.014-.95.04-1.297.188-.1.04-.26.04-.274.167.055.053.063.14.11.214.08.134.218.313.346.407.14.11.28.216.427.31.26.16.555.255.81.416.145.094.293.213.44.313.073.05.12.14.214.172v-.02c-.046-.06-.06-.147-.105-.214-.067-.067-.134-.127-.2-.193a3.223 3.223 0 00-.695-.675c-.214-.146-.682-.35-.77-.595l-.013-.014c.146-.013.32-.066.46-.106.227-.06.435-.047.67-.106.106-.027.213-.06.32-.094v-.06c-.12-.12-.21-.283-.334-.395a8.867 8.867 0 00-1.104-.823c-.21-.134-.476-.22-.697-.334-.08-.04-.214-.06-.26-.127-.12-.146-.19-.34-.275-.514a17.69 17.69 0 01-.547-1.163c-.12-.262-.193-.523-.34-.763-.69-1.137-1.437-1.826-2.586-2.5-.247-.14-.543-.2-.856-.274-.167-.008-.334-.02-.5-.027-.11-.047-.216-.174-.31-.235-.38-.24-1.364-.76-1.644-.072-.18.434.267.862.422 1.082.115.153.26.328.34.5.047.116.06.235.107.356.106.294.207.622.347.897.073.14.153.287.247.413.054.073.146.107.167.227-.094.136-.1.334-.154.5-.24.757-.146 1.693.194 2.25.107.166.362.534.703.393.3-.12.234-.5.32-.835.02-.08.007-.133.048-.187v.015c.094.188.188.367.274.555.206.328.566.668.867.895.16.12.287.328.487.402v-.02h-.015c-.043-.058-.1-.086-.154-.133a3.445 3.445 0 01-.35-.4 8.76 8.76 0 01-.747-1.218c-.11-.21-.202-.436-.29-.643-.04-.08-.04-.2-.107-.24-.1.146-.247.273-.32.453-.127.288-.14.642-.188 1.01-.027.007-.014 0-.027.014-.214-.052-.287-.274-.367-.46-.2-.475-.233-1.238-.06-1.785.047-.14.247-.582.167-.716-.042-.127-.174-.2-.247-.303a2.478 2.478 0 01-.24-.427c-.16-.374-.24-.788-.414-1.162-.08-.173-.22-.354-.334-.513-.127-.18-.267-.307-.368-.52-.033-.073-.08-.194-.027-.274.014-.054.042-.075.094-.09.088-.072.335.022.422.062.247.1.455.194.662.334.094.066.195.193.315.226h.14c.214.047.455.014.655.073.355.114.675.28.962.46a5.953 5.953 0 012.085 2.286c.08.154.115.295.188.455.14.33.313.663.455.982.14.315.275.636.476.897.1.14.502.213.682.286.133.06.34.115.46.188.23.14.454.3.67.454.11.076.443.243.463.378z" fill="#4479A1"/>
  </g>
  <text x="126.0" y="387.0" text-anchor="middle" class="skillname">MySQL</text>
  <circle cx="208.0" cy="350.0" r="22" class="circlefill"/>
  <circle cx="208.0" cy="350.0" r="22" class="track"/>
  <circle cx="208.0" cy="350.0" r="22" fill="none" stroke="#4169E1" stroke-width="4" stroke-linecap="round" stroke-dasharray="0 138.23" transform="rotate(-90 208.0 350.0)">
    <animate attributeName="stroke-dasharray" from="0 138.23" to="110.58 27.65" dur="1.4s" begin="0.6s" fill="freeze" calcMode="spline" keyTimes="0;1" keySplines="0.4 0 0.2 1"/>
  </circle>
  <g transform="translate(197.00,339.00) scale(0.9167)">
    <path d="M23.5594 14.7228a.5269.5269 0 0 0-.0563-.1191c-.139-.2632-.4768-.3418-1.0074-.2321-1.6533.3411-2.2935.1312-2.5256-.0191 1.342-2.0482 2.445-4.522 3.0411-6.8297.2714-1.0507.7982-3.5237.1222-4.7316a1.5641 1.5641 0 0 0-.1509-.235C21.6931.9086 19.8007.0248 17.5099.0005c-1.4947-.0158-2.7705.3461-3.1161.4794a9.449 9.449 0 0 0-.5159-.0816 8.044 8.044 0 0 0-1.3114-.1278c-1.1822-.0184-2.2038.2642-3.0498.8406-.8573-.3211-4.7888-1.645-7.2219.0788C.9359 2.1526.3086 3.8733.4302 6.3043c.0409.818.5069 3.334 1.2423 5.7436.4598 1.5065.9387 2.7019 1.4334 3.582.553.9942 1.1259 1.5933 1.7143 1.7895.4474.1491 1.1327.1441 1.8581-.7279.8012-.9635 1.5903-1.8258 1.9446-2.2069.4351.2355.9064.3625 1.39.3772a.0569.0569 0 0 0 .0004.0041 11.0312 11.0312 0 0 0-.2472.3054c-.3389.4302-.4094.5197-1.5002.7443-.3102.064-1.1344.2339-1.1464.8115-.0025.1224.0329.2309.0919.3268.2269.4231.9216.6097 1.015.6331 1.3345.3335 2.5044.092 3.3714-.6787-.017 2.231.0775 4.4174.3454 5.0874.2212.5529.7618 1.9045 2.4692 1.9043.2505 0 .5263-.0291.8296-.0941 1.7819-.3821 2.5557-1.1696 2.855-2.9059.1503-.8707.4016-2.8753.5388-4.1012.0169-.0703.0357-.1207.057-.1362.0007-.0005.0697-.0471.4272.0307a.3673.3673 0 0 0 .0443.0068l.2539.0223.0149.001c.8468.0384 1.9114-.1426 2.5312-.4308.6438-.2988 1.8057-1.0323 1.5951-1.6698zM2.371 11.8765c-.7435-2.4358-1.1779-4.8851-1.2123-5.5719-.1086-2.1714.4171-3.6829 1.5623-4.4927 1.8367-1.2986 4.8398-.5408 6.108-.13-.0032.0032-.0066.0061-.0098.0094-2.0238 2.044-1.9758 5.536-1.9708 5.7495-.0002.0823.0066.1989.0162.3593.0348.5873.0996 1.6804-.0735 2.9184-.1609 1.1504.1937 2.2764.9728 3.0892.0806.0841.1648.1631.2518.2374-.3468.3714-1.1004 1.1926-1.9025 2.1576-.5677.6825-.9597.5517-1.0886.5087-.3919-.1307-.813-.5871-1.2381-1.3223-.4796-.839-.9635-2.0317-1.4155-3.5126zm6.0072 5.0871c-.1711-.0428-.3271-.1132-.4322-.1772.0889-.0394.2374-.0902.4833-.1409 1.2833-.2641 1.4815-.4506 1.9143-1.0002.0992-.126.2116-.2687.3673-.4426a.3549.3549 0 0 0 .0737-.1298c.1708-.1513.2724-.1099.4369-.0417.156.0646.3078.26.3695.4752.0291.1016.0619.2945-.0452.4444-.9043 1.2658-2.2216 1.2494-3.1676 1.0128zm2.094-3.988-.0525.141c-.133.3566-.2567.6881-.3334 1.003-.6674-.0021-1.3168-.2872-1.8105-.8024-.6279-.6551-.9131-1.5664-.7825-2.5004.1828-1.3079.1153-2.4468.079-3.0586-.005-.0857-.0095-.1607-.0122-.2199.2957-.2621 1.6659-.9962 2.6429-.7724.4459.1022.7176.4057.8305.928.5846 2.7038.0774 3.8307-.3302 4.7363-.084.1866-.1633.3629-.2311.5454zm7.3637 4.5725c-.0169.1768-.0358.376-.0618.5959l-.146.4383a.3547.3547 0 0 0-.0182.1077c-.0059.4747-.054.6489-.115.8693-.0634.2292-.1353.4891-.1794 1.0575-.11 1.4143-.8782 2.2267-2.4172 2.5565-1.5155.3251-1.7843-.4968-2.0212-1.2217a6.5824 6.5824 0 0 0-.0769-.2266c-.2154-.5858-.1911-1.4119-.1574-2.5551.0165-.5612-.0249-1.9013-.3302-2.6462.0044-.2932.0106-.5909.019-.8918a.3529.3529 0 0 0-.0153-.1126 1.4927 1.4927 0 0 0-.0439-.208c-.1226-.4283-.4213-.7866-.7797-.9351-.1424-.059-.4038-.1672-.7178-.0869.067-.276.1831-.5875.309-.9249l.0529-.142c.0595-.16.134-.3257.213-.5012.4265-.9476 1.0106-2.2453.3766-5.1772-.2374-1.0981-1.0304-1.6343-2.2324-1.5098-.7207.0746-1.3799.3654-1.7088.5321a5.6716 5.6716 0 0 0-.1958.1041c.0918-1.1064.4386-3.1741 1.7357-4.4823a4.0306 4.0306 0 0 1 .3033-.276.3532.3532 0 0 0 .1447-.0644c.7524-.5706 1.6945-.8506 2.802-.8325.4091.0067.8017.0339 1.1742.081 1.939.3544 3.2439 1.4468 4.0359 2.3827.8143.9623 1.2552 1.9315 1.4312 2.4543-1.3232-.1346-2.2234.1268-2.6797.779-.9926 1.4189.543 4.1729 1.2811 5.4964.1353.2426.2522.4522.2889.5413.2403.5825.5515.9713.7787 1.2552.0696.087.1372.1714.1885.245-.4008.1155-1.1208.3825-1.0552 1.717-.0123.1563-.0423.4469-.0834.8148-.0461.2077-.0702.4603-.0994.7662zm.8905-1.6211c-.0405-.8316.2691-.9185.5967-1.0105a2.8566 2.8566 0 0 0 .135-.0406 1.202 1.202 0 0 0 .1342.103c.5703.3765 1.5823.4213 3.0068.1344-.2016.1769-.5189.3994-.9533.6011-.4098.1903-1.0957.333-1.7473.3636-.7197.0336-1.0859-.0807-1.1721-.151zm.5695-9.2712c-.0059.3508-.0542.6692-.1054 1.0017-.055.3576-.112.7274-.1264 1.1762-.0142.4368.0404.8909.0932 1.3301.1066.887.216 1.8003-.2075 2.7014a3.5272 3.5272 0 0 1-.1876-.3856c-.0527-.1276-.1669-.3326-.3251-.6162-.6156-1.1041-2.0574-3.6896-1.3193-4.7446.3795-.5427 1.3408-.5661 2.1781-.463zm.2284 7.0137a12.3762 12.3762 0 0 0-.0853-.1074l-.0355-.0444c.7262-1.1995.5842-2.3862.4578-3.4385-.0519-.4318-.1009-.8396-.0885-1.2226.0129-.4061.0666-.7543.1185-1.0911.0639-.415.1288-.8443.1109-1.3505.0134-.0531.0188-.1158.0118-.1902-.0457-.4855-.5999-1.938-1.7294-3.253-.6076-.7073-1.4896-1.4972-2.6889-2.0395.5251-.1066 1.2328-.2035 2.0244-.1859 2.0515.0456 3.6746.8135 4.8242 2.2824a.908.908 0 0 1 .0667.1002c.7231 1.3556-.2762 6.2751-2.9867 10.5405zm-8.8166-6.1162c-.025.1794-.3089.4225-.6211.4225a.5821.5821 0 0 1-.0809-.0056c-.1873-.026-.3765-.144-.5059-.3156-.0458-.0605-.1203-.178-.1055-.2844.0055-.0401.0261-.0985.0925-.1488.1182-.0894.3518-.1226.6096-.0867.3163.0441.6426.1938.6113.4186zm7.9305-.4114c.0111.0792-.049.201-.1531.3102-.0683.0717-.212.1961-.4079.2232a.5456.5456 0 0 1-.075.0052c-.2935 0-.5414-.2344-.5607-.3717-.024-.1765.2641-.3106.5611-.352.297-.0414.6111.0088.6356.1851z" fill="#4169E1"/>
  </g>
  <text x="208.0" y="387.0" text-anchor="middle" class="skillname">PostgreSQL</text>
  <circle cx="290.0" cy="350.0" r="22" class="circlefill"/>
  <circle cx="290.0" cy="350.0" r="22" class="track"/>
  <circle cx="290.0" cy="350.0" r="22" fill="none" stroke="#47A248" stroke-width="4" stroke-linecap="round" stroke-dasharray="0 138.23" transform="rotate(-90 290.0 350.0)">
    <animate attributeName="stroke-dasharray" from="0 138.23" to="110.58 27.65" dur="1.4s" begin="0.7s" fill="freeze" calcMode="spline" keyTimes="0;1" keySplines="0.4 0 0.2 1"/>
  </circle>
  <g transform="translate(279.00,339.00) scale(0.9167)">
    <path d="M17.193 9.555c-1.264-5.58-4.252-7.414-4.573-8.115-.28-.394-.53-.954-.735-1.44-.036.495-.055.685-.523 1.184-.723.566-4.438 3.682-4.74 10.02-.282 5.912 4.27 9.435 4.888 9.884l.07.05A73.49 73.49 0 0111.91 24h.481c.114-1.032.284-2.056.51-3.07.417-.296.604-.463.85-.693a11.342 11.342 0 003.639-8.464c.01-.814-.103-1.662-.197-2.218zm-5.336 8.195s0-8.291.275-8.29c.213 0 .49 10.695.49 10.695-.381-.045-.765-1.76-.765-2.405z" fill="#47A248"/>
  </g>
  <text x="290.0" y="387.0" text-anchor="middle" class="skillname">MongoDB</text>
  <circle cx="372.0" cy="350.0" r="22" class="circlefill"/>
  <circle cx="372.0" cy="350.0" r="22" class="track"/>
  <circle cx="372.0" cy="350.0" r="22" fill="none" stroke="#C00000" stroke-width="4" stroke-linecap="round" stroke-dasharray="0 138.23" transform="rotate(-90 372.0 350.0)">
    <animate attributeName="stroke-dasharray" from="0 138.23" to="110.58 27.65" dur="1.4s" begin="0.8s" fill="freeze" calcMode="spline" keyTimes="0;1" keySplines="0.4 0 0.2 1"/>
  </circle>
  <g transform="translate(361.00,339.00) scale(0.9167)">
    <path d="M16.412 4.412H7.588C3.396 4.412 0 7.808 0 12s3.396 7.588 7.588 7.588h8.824C20.604 19.588 24 16.192 24 12s-3.396-7.588-7.588-7.588zm-.177 12.529H7.765a4.941 4.941 0 0 1 0-9.882h8.47a4.941 4.941 0 0 1 0 9.882z" fill="#C00000"/>
  </g>
  <text x="372.0" y="387.0" text-anchor="middle" class="skillname">Oracle</text>
  <circle cx="454.0" cy="350.0" r="22" class="circlefill"/>
  <circle cx="454.0" cy="350.0" r="22" class="track"/>
  <circle cx="454.0" cy="350.0" r="22" fill="none" stroke="#2496ED" stroke-width="4" stroke-linecap="round" stroke-dasharray="0 138.23" transform="rotate(-90 454.0 350.0)">
    <animate attributeName="stroke-dasharray" from="0 138.23" to="82.94 55.29" dur="1.4s" begin="0.9s" fill="freeze" calcMode="spline" keyTimes="0;1" keySplines="0.4 0 0.2 1"/>
  </circle>
  <g transform="translate(443.00,339.00) scale(0.9167)">
    <path d="M13.983 11.078h2.119a.186.186 0 00.186-.185V9.006a.186.186 0 00-.186-.186h-2.119a.185.185 0 00-.185.185v1.888c0 .102.083.185.185.185m-2.954-5.43h2.118a.186.186 0 00.186-.186V3.574a.186.186 0 00-.186-.185h-2.118a.185.185 0 00-.185.185v1.888c0 .102.082.185.185.185m0 2.716h2.118a.187.187 0 00.186-.186V6.29a.186.186 0 00-.186-.185h-2.118a.185.185 0 00-.185.185v1.887c0 .102.082.185.185.186m-2.93 0h2.12a.186.186 0 00.184-.186V6.29a.185.185 0 00-.185-.185H8.1a.185.185 0 00-.185.185v1.887c0 .102.083.185.185.186m-2.964 0h2.119a.186.186 0 00.185-.186V6.29a.185.185 0 00-.185-.185H5.136a.186.186 0 00-.186.185v1.887c0 .102.084.185.186.186m5.893 2.715h2.118a.186.186 0 00.186-.185V9.006a.186.186 0 00-.186-.186h-2.118a.185.185 0 00-.185.185v1.888c0 .102.082.185.185.185m-2.93 0h2.12a.185.185 0 00.184-.185V9.006a.185.185 0 00-.184-.186h-2.12a.185.185 0 00-.184.185v1.888c0 .102.083.185.185.185m-2.964 0h2.119a.185.185 0 00.185-.185V9.006a.185.185 0 00-.184-.186h-2.12a.186.186 0 00-.186.186v1.887c0 .102.084.185.186.185m-2.92 0h2.12a.185.185 0 00.184-.185V9.006a.185.185 0 00-.184-.186h-2.12a.185.185 0 00-.184.185v1.888c0 .102.082.185.185.185M23.763 9.89c-.065-.051-.672-.51-1.954-.51-.338.001-.676.03-1.01.087-.248-1.7-1.653-2.53-1.716-2.566l-.344-.199-.226.327c-.284.438-.49.922-.612 1.43-.23.97-.09 1.882.403 2.661-.595.332-1.55.413-1.744.42H.751a.751.751 0 00-.75.748 11.376 11.376 0 00.692 4.062c.545 1.428 1.355 2.48 2.41 3.124 1.18.723 3.1 1.137 5.275 1.137.983.003 1.963-.086 2.93-.266a12.248 12.248 0 003.823-1.389c.98-.567 1.86-1.288 2.61-2.136 1.252-1.418 1.998-2.997 2.553-4.4h.221c1.372 0 2.215-.549 2.68-1.009.309-.293.55-.65.707-1.046l.098-.288Z" fill="#2496ED"/>
  </g>
  <text x="454.0" y="387.0" text-anchor="middle" class="skillname">Docker</text>
  <line x1="85.0" y1="427" x2="495.0" y2="427" class="divider"/>
  <text x="290.0" y="450" text-anchor="middle" class="grouptitle">DESIGN & TOOLS</text>
  <circle cx="126.0" cy="486.0" r="22" class="circlefill"/>
  <circle cx="126.0" cy="486.0" r="22" class="track"/>
  <circle cx="126.0" cy="486.0" r="22" fill="none" stroke="#F24E1E" stroke-width="4" stroke-linecap="round" stroke-dasharray="0 138.23" transform="rotate(-90 126.0 486.0)">
    <animate attributeName="stroke-dasharray" from="0 138.23" to="110.58 27.65" dur="1.4s" begin="0.75s" fill="freeze" calcMode="spline" keyTimes="0;1" keySplines="0.4 0 0.2 1"/>
  </circle>
  <g transform="translate(115.00,475.00) scale(0.9167)">
    <path d="M15.852 8.981h-4.588V0h4.588c2.476 0 4.49 2.014 4.49 4.49s-2.014 4.491-4.49 4.491zM12.735 7.51h3.117c1.665 0 3.019-1.355 3.019-3.019s-1.355-3.019-3.019-3.019h-3.117V7.51zm0 1.471H8.148c-2.476 0-4.49-2.014-4.49-4.49S5.672 0 8.148 0h4.588v8.981zm-4.587-7.51c-1.665 0-3.019 1.355-3.019 3.019s1.354 3.02 3.019 3.02h3.117V1.471H8.148zm4.587 15.019H8.148c-2.476 0-4.49-2.014-4.49-4.49s2.014-4.49 4.49-4.49h4.588v8.98zM8.148 8.981c-1.665 0-3.019 1.355-3.019 3.019s1.355 3.019 3.019 3.019h3.117V8.981H8.148zM8.172 24c-2.489 0-4.515-2.014-4.515-4.49s2.014-4.49 4.49-4.49h4.588v4.441c0 2.503-2.047 4.539-4.563 4.539zm-.024-7.51a3.023 3.023 0 0 0-3.019 3.019c0 1.665 1.365 3.019 3.044 3.019 1.705 0 3.093-1.376 3.093-3.068v-2.97H8.148zm7.704 0h-.098c-2.476 0-4.49-2.014-4.49-4.49s2.014-4.49 4.49-4.49h.098c2.476 0 4.49 2.014 4.49 4.49s-2.014 4.49-4.49 4.49zm-.097-7.509c-1.665 0-3.019 1.355-3.019 3.019s1.355 3.019 3.019 3.019h.098c1.665 0 3.019-1.355 3.019-3.019s-1.355-3.019-3.019-3.019h-.098z" fill="#F24E1E"/>
  </g>
  <text x="126.0" y="523.0" text-anchor="middle" class="skillname">Figma</text>
  <circle cx="208.0" cy="486.0" r="22" class="circlefill"/>
  <circle cx="208.0" cy="486.0" r="22" class="track"/>
  <circle cx="208.0" cy="486.0" r="22" fill="none" stroke="#31A8FF" stroke-width="4" stroke-linecap="round" stroke-dasharray="0 138.23" transform="rotate(-90 208.0 486.0)">
    <animate attributeName="stroke-dasharray" from="0 138.23" to="110.58 27.65" dur="1.4s" begin="0.85s" fill="freeze" calcMode="spline" keyTimes="0;1" keySplines="0.4 0 0.2 1"/>
  </circle>
  <g transform="translate(197.00,475.00) scale(0.9167)">
    <path d="M9.85 8.42c-.37-.14-.77-.2-1.19-.2H7.82v4.17h.83c.45 0 .86-.07 1.22-.22.36-.14.65-.38.87-.7.22-.32.33-.74.33-1.26 0-.51-.11-.92-.32-1.24a1.94 1.94 0 0 0-.9-.55zM0 4v16h24V4H0zm9.45 10.45c-.44.36-.96.59-1.54.72-.58.12-1.21.17-1.88.17H5.1v3.27H3.38V6.89h4.07c.65 0 1.22.1 1.73.28.5.19.93.45 1.27.8.35.34.62.75.8 1.22.18.47.28.99.28 1.55 0 .67-.13 1.26-.38 1.76-.26.5-.63.91-1.07 1.24zm10.8.74c-.22.55-.53 1.03-.93 1.43-.4.4-.88.7-1.44.92-.56.22-1.18.34-1.84.34-.45 0-.88-.05-1.28-.14-.4-.1-.79-.24-1.17-.43l.62-1.38c.29.15.59.28.9.36.32.09.65.13.99.13.33 0 .63-.05.9-.15.28-.1.52-.25.72-.44.2-.19.36-.42.48-.69.11-.27.17-.57.17-.9 0-.29-.05-.54-.14-.76a1.59 1.59 0 0 0-.41-.56 1.8 1.8 0 0 0-.66-.37c-.26-.08-.55-.13-.87-.13h-.83v-1.35h.83c.24 0 .46-.04.66-.12.19-.08.35-.19.48-.33.13-.14.23-.31.3-.5.07-.19.1-.41.1-.65 0-.48-.14-.85-.42-1.1-.28-.25-.64-.38-1.08-.38-.34 0-.64.06-.91.17-.27.12-.52.27-.76.46l-.75-1.23c.33-.27.71-.48 1.14-.63.43-.15.9-.23 1.42-.23.54 0 1.01.08 1.42.24.41.16.75.38 1.03.66.28.28.5.6.64.97.14.37.21.77.21 1.2 0 .43-.08.81-.24 1.15a2.5 2.5 0 0 1-.66.87c.35.17.65.38.9.64.25.26.45.55.59.88.14.33.21.68.21 1.06 0 .42-.07.82-.22 1.19z" fill="#31A8FF"/>
  </g>
  <text x="208.0" y="523.0" text-anchor="middle" class="skillname">Photoshop</text>
  <circle cx="290.0" cy="486.0" r="22" class="circlefill"/>
  <circle cx="290.0" cy="486.0" r="22" class="track"/>
  <circle cx="290.0" cy="486.0" r="22" fill="none" stroke="#C71A36" stroke-width="4" stroke-linecap="round" stroke-dasharray="0 138.23" transform="rotate(-90 290.0 486.0)">
    <animate attributeName="stroke-dasharray" from="0 138.23" to="96.76 41.47" dur="1.4s" begin="0.95s" fill="freeze" calcMode="spline" keyTimes="0;1" keySplines="0.4 0 0.2 1"/>
  </circle>
  <g transform="translate(279.00,475.00) scale(0.9167)">
    <path d="M4.237.001c-.312-.013-.665.072-.828.457-.158.374-.283 1.188-.34 2.276l1.223.591c-.02-.737.007-1.43.076-2.066-.026.299-.056.96.006 2.039.019.342.049.725.088 1.15.002.024.002.047.007.069a45.485 45.485 0 0 0 .309 2.412c.057.368.126.752.195 1.16l-.01.01c.014.01.015.018.014.023l.03.16c.03.162.06.328.093.494l.108.553.056.289a61.72 61.72 0 0 0 .457 2.068c.09.382.186.78.287 1.186.098.386.199.783.309 1.193.096.362.199.735.303 1.117.003.018.012.036.015.055a145.826 145.826 0 0 0 .34 1.185l.049.174c.078.261.158.533.242.805a4.2 4.2 0 0 1-.293-.135l-.19-.654c-.02-.077-.042-.148-.062-.225l-.002-.004-.004-.002c-.087-.3-.17-.607-.257-.916-.023-.087-.044-.173-.069-.263l-.314-1.178c-.1-.381-.194-.765-.29-1.154-.094-.39-.185-.78-.277-1.172-.093-.401-.181-.8-.265-1.203-.085-.396-.161-.798-.24-1.193a50.315 50.315 0 0 1-.211-1.17c-.004-.013-.006-.03-.01-.041l.004-.002c-.057-.386-.116-.77-.174-1.15a60.905 60.905 0 0 1-.154-1.204 27.447 27.447 0 0 1-.172-2.41l-1.22-.59c-.004.074-.01.15-.013.23-.012.294-.02.605-.023.93a45.3 45.3 0 0 0 .006 1.157c.009.37.025.755.045 1.148.02.336.042.675.07 1.022l.002.039.006.004c.003.023.007.05.006.076.033.368.064.739.107 1.115a34.493 34.493 0 0 0 .303 2.125c.01.064.024.131.035.195a23.418 23.418 0 0 0 .547 2.32c.07.237.14.464.21.68.063.182.13.365.194.545.155.422.327.832.512 1.232l.006.004a.318.318 0 0 0 .02.05c.225.485.475.95.755 1.395.01.013.02.033.03.047-.455-.183-1.259-.098-1.253-.097.83.288 1.557.64 2.016 1.175-.183.2-.523.352-.953.477.594.064.924-.039 1.045-.092-.31.26-.483.732-.635 1.24.35-.57.696-.949 1.033-1.094.078.258.162.524.244.788A147.532 147.532 0 0 0 5.157 24a.56.56 0 0 0 .43-.312c.13-.282.83-1.775 1.908-3.875.413 1.303.88 2.679 1.386 4.109a.494.494 0 0 0 .076-.465 103.735 103.735 0 0 1-1.308-3.945c.154-.299.316-.612.484-.932.125.04.255.094.389.155.203.186.352.491.482.84a1.515 1.515 0 0 0-.334-1.098c1.335.258 2.547.09 3.287-.81a3.97 3.97 0 0 0 .192-.258c-.325.304-.682.404-1.313.273.996-.281 1.523-.617 2.035-1.22.12-.145.244-.303.371-.48-.943.722-1.927.822-2.9.493l-.045-.018c.914.02 2.203-.474 3.092-1.189.41-.33.796-.73 1.17-1.21.28-.359.55-.76.82-1.216.234-.393.468-.824.7-1.293a2.83 2.83 0 0 1-.74.137l-.144.008c-.048.002-.093 0-.146.002.885-.198 1.5-.74 1.994-1.447-.24.117-.628.262-1.07.297-.058.006-.12.006-.182.006-.013-.002-.028 0-.047-.002.306-.078.574-.178.81-.309a3.363 3.363 0 0 0 .358-.236c.044-.037.088-.07.13-.106.099-.086.193-.18.28-.287.028-.034.056-.063.08-.098.036-.05.073-.098.104-.146a8.388 8.388 0 0 0 .51-.828c.015-.031.032-.057.046-.088.04-.084.08-.16.11-.227.042-.099.074-.179.092-.238a.515.515 0 0 1-.108.051c-.273.112-.727.187-1.086.201-.004 0-.008 0-.013.004h-.067c.72-.214 1.067-.45 1.422-.818a13.883 13.883 0 0 0 1.154-1.428c.264-.37.505-.738.692-1.072a6.5 6.5 0 0 0 .298-.592c.066-.157.122-.305.172-.45-.466.01-.986.011-1.48 0 .495.01 1.015.007 1.484-.005.5-1.485.063-2.262.063-2.262s-.526-1.212-1.4-.851c-.426.175-1.172.73-2.083 1.56l.514 1.45a17.561 17.561 0 0 1 1.703-1.602c-.257.22-.807.726-1.615 1.644-.256.29-.537.624-.844.997-.017.02-.035.038-.047.06a51.435 51.435 0 0 0-1.666 2.187c-.248.34-.498.704-.765 1.088h-.016c.002.02-.004.028-.01.032l-.101.152c-.104.155-.213.31-.318.47l-.352.534c-.061.09-.124.181-.186.277-.184.282-.367.573-.558.873a97.351 97.351 0 0 0-1.428 2.338 96.866 96.866 0 0 0-1.341 2.343c-.012.017-.02.04-.034.057a197.256 197.256 0 0 0-.668 1.223l-.097.181c-.17.318-.346.642-.52.979 0 .004-.005.008-.006.013-.026.048-.05.093-.072.141-.117.222-.218.424-.45.87a1.352 1.352 0 0 0-.233-.182l.345-.65c.047-.089.096-.177.143-.27l.04-.077.546-1.001.13-.233v-.006l-.001-.006c.169-.31.345-.62.52-.94.051-.087.102-.173.153-.265.224-.395.454-.794.684-1.197a91.685 91.685 0 0 1 2.135-3.504c.247-.386.503-.77.754-1.152.092-.138.182-.272.279-.41a72.9 72.9 0 0 1 .48-.701c.007-.012.019-.024.026-.037h.006c.26-.356.517-.713.773-1.065.278-.373.554-.735.83-1.09a31.075 31.075 0 0 1 1.777-2.075l-.515-1.446c-.06.057-.126.116-.192.178a32.37 32.37 0 0 0-.758.729c-.295.294-.597.606-.912.935a46.032 46.032 0 0 0-1.632 1.838l-.03.033.002.008c-.017.02-.033.044-.054.064-.266.323-.538.649-.801.985a39.105 39.105 0 0 0-1.445 1.95c-.043.06-.085.126-.127.186a26.458 26.458 0 0 0-1.403 2.303c-.13.247-.256.485-.37.715-.096.195-.187.395-.278.591-.21.463-.398.93-.566 1.399l.002.006a.36.36 0 0 0-.026.058c-.108.303-.203.608-.29.914-.14.174-.302.325-.483.46a3.505 3.505 0 0 0-.131-.153 5.148 5.148 0 0 0 .824-2.211 6.4 6.4 0 0 0-.016-1.488c-.046-.4-.126-.82-.238-1.274-.097-.393-.217-.81-.363-1.248-.091.185-.22.367-.379.545l-.086.094c-.029.032-.06.06-.092.094.434-.674.486-1.397.358-2.148a2.722 2.722 0 0 1-.49.85c-.033.038-.072.077-.11.116-.01.007-.019.018-.033.028.144-.24.25-.467.318-.698a1.29 1.29 0 0 0 .04-.146 2.85 2.85 0 0 0 .038-.225l.018-.146a2.11 2.11 0 0 0-.002-.354c-.003-.04-.004-.076-.01-.113-.01-.055-.016-.105-.027-.154a7.416 7.416 0 0 0-.193-.84c-.01-.028-.015-.056-.026-.084-.027-.079-.048-.149-.072-.209a2.1 2.1 0 0 0-.09-.209.455.455 0 0 1-.035.1c-.102.24-.34.57-.557.8-.003.003-.007.005-.007.01l-.04.043c.318-.58.39-.946.385-1.398a12.274 12.274 0 0 0-.16-1.615 10.68 10.68 0 0 0-.232-1.104 5.853 5.853 0 0 0-.18-.558 6.337 6.337 0 0 0-.172-.391 26.18 26.18 0 0 0 .002-.004C5.576.341 4.82.124 4.82.124s-.27-.11-.582-.123zm3.38 15.783l.032.082v.002c-.06.033-.116.067-.178.097-.012.004-.024.012-.039.018a2.41 2.41 0 0 0 .186-.2zm-.603 1.626c.13.136.25.242.354.32l.07.227a1.866 1.866 0 0 0-.246.053l-.03-.098c-.024-.084-.048-.17-.076-.257l-.021-.073zm.26.875a2.34 2.34 0 0 1 .271.01l.07.229a.778.778 0 0 1 .247-.004l-.326.627a127.643 127.643 0 0 1-.262-.862z" fill="#C71A36"/>
  </g>
  <text x="290.0" y="523.0" text-anchor="middle" class="skillname">Maven</text>
  <circle cx="372.0" cy="486.0" r="22" class="circlefill"/>
  <circle cx="372.0" cy="486.0" r="22" class="track"/>
  <circle cx="372.0" cy="486.0" r="22" fill="none" stroke="#F05032" stroke-width="4" stroke-linecap="round" stroke-dasharray="0 138.23" transform="rotate(-90 372.0 486.0)">
    <animate attributeName="stroke-dasharray" from="0 138.23" to="117.50 20.73" dur="1.4s" begin="1.05s" fill="freeze" calcMode="spline" keyTimes="0;1" keySplines="0.4 0 0.2 1"/>
  </circle>
  <g transform="translate(361.00,475.00) scale(0.9167)">
    <path d="M13.09 23.549a1.54 1.54 0 0 1-2.18 0L.451 13.089a1.54 1.54 0 0 1 0-2.179l7.191-7.19 2.733 2.733a1.85 1.85 0 0 0 .964 2.326v6.66a1.849 1.849 0 1 0 1.54 0V8.957l2.508 2.508a1.85 1.85 0 1 0 1.09-1.09l-2.634-2.634a1.85 1.85 0 0 0-2.378-2.377L8.73 2.63 10.91.451a1.54 1.54 0 0 1 2.179 0l10.459 10.46a1.54 1.54 0 0 1 0 2.179z" fill="#F05032"/>
  </g>
  <text x="372.0" y="523.0" text-anchor="middle" class="skillname">Git</text>
  <circle cx="454.0" cy="486.0" r="22" class="circlefill"/>
  <circle cx="454.0" cy="486.0" r="22" class="track"/>
  <circle cx="454.0" cy="486.0" r="22" fill="none" stroke="#FC6D26" stroke-width="4" stroke-linecap="round" stroke-dasharray="0 138.23" transform="rotate(-90 454.0 486.0)">
    <animate attributeName="stroke-dasharray" from="0 138.23" to="110.58 27.65" dur="1.4s" begin="1.15s" fill="freeze" calcMode="spline" keyTimes="0;1" keySplines="0.4 0 0.2 1"/>
  </circle>
  <g transform="translate(443.00,475.00) scale(0.9167)">
    <path d="m23.6004 9.5927-.0337-.0862L20.3.9814a.851.851 0 0 0-.3362-.405.8748.8748 0 0 0-.9997.0539.8748.8748 0 0 0-.29.4399l-2.2055 6.748H7.5375l-2.2057-6.748a.8573.8573 0 0 0-.29-.4412.8748.8748 0 0 0-.9997-.0537.8585.8585 0 0 0-.3362.4049L.4332 9.5015l-.0325.0862a6.0657 6.0657 0 0 0 2.0119 7.0105l.0113.0087.03.0213 4.976 3.7264 2.462 1.8633 1.4995 1.1321a1.0085 1.0085 0 0 0 1.2197 0l1.4995-1.1321 2.4619-1.8633 5.006-3.7489.0125-.01a6.0682 6.0682 0 0 0 2.0094-7.003z" fill="#FC6D26"/>
  </g>
  <text x="454.0" y="523.0" text-anchor="middle" class="skillname">GitLab</text>
</svg>